<?xml version="1.0" encoding="utf-8"?>
<!-- Generator: Adobe Illustrator 28.0.0, SVG Export Plug-In . SVG Version: 6.00 Build 0)  -->
<svg version="1.1" xmlns="http://www.w3.org/2000/svg" xmlns:xlink="http://www.w3.org/1999/xlink" x="0px" y="0px"
	 viewBox="0 0 850.39 850.39" style="enable-background:new 0 0 850.39 850.39;" xml:space="preserve">
<style type="text/css">
	.st0{display:none;fill:#312783;}
	.st1{fill:#1D1D1B;}
	.st2{fill:#FFFFFF;}
	.st3{display:none;fill:#FFFFFF;}
	.st4{display:none;}
	.st5{display:inline;fill:#FFFFFF;}
	.st6{display:inline;}
	.st7{fill:#FFFFFF;stroke:#00E7FF;stroke-width:6;stroke-miterlimit:10;}
	.st8{fill:none;stroke:#FFFFFF;stroke-width:3;stroke-miterlimit:10;}
	.st9{display:inline;fill:#1D1D1B;stroke:#FFFFFF;stroke-width:1.5;stroke-miterlimit:10;}
	.st10{display:inline;fill:#1D1D1B;stroke:#FFFFFF;stroke-miterlimit:10;}
</style>
<g id="Шар_1">
	<rect x="124.26" y="172.78" class="st0" width="625.3" height="590.09"/>
	<path id="Head_Shape" class="st1" d="M557.73,484.59c-7.78,7.78-16.16,7.78-16.16,7.78s-5.39,32.33-11.38,47.29
		c-5.98,14.96-45.49,84.41-100.57,89.79l-5.99,0.6l-0.04-0.08l-5.88-0.59c-55.07-5.39-94.59-74.83-100.57-89.79
		c-5.99-14.97-11.38-47.29-11.38-47.29s-8.38,0-16.16-7.78c-7.78-7.78-29.93-81.41-22.75-97.58c7.18-16.16,20.95-7.78,20.95-7.78
		c-8.98-47.89,6.59-76.03,6.59-76.03c35.32-83.81,127.51-83.81,127.51-83.81s95.72,0.07,131.04,83.88c0,0,15.56,28.14,6.59,76.03
		c0,0,13.77-8.38,20.95,7.78C587.66,403.17,565.51,476.8,557.73,484.59z"/>
	<g id="Shades">
		<path id="Left_Eyelead" class="st2" d="M343.71,426.96c0,0,20.2,18.26,43.1,2.24l3.29,5.24c0,0-10.78,10.18-28.29,9.13
			s-23.05-16.46-23.05-16.46L343.71,426.96z"/>
		<path class="st2" d="M316.92,444.73l0.03,0.22c0.83,6.66,4.23,12.74,9.48,16.94l15.16,12.13c6.77,5.41,11.32,13.11,12.82,21.64
			l8.26,47.13c1.46,8.33,4.24,16.38,8.23,23.83l7.93,14.8c2.01,3.75,6.99,4.64,10.17,1.82c4.89-4.33,8.71-11.29,32.96-10.49
			l-0.05-6.31l-16.16-0.45l-24.92-11.67l19.39-11.2c2.79-1.73,6.09-2.45,9.34-2.04l7.95,3.01l0.13-10.2c0,0-25.7-0.33-27.95-19.88
			c-1.44-12.46,2.62-27.68,5.76-37.07c2.58-7.74,4.8-15.6,6.6-23.57l1.93-8.55l-12.84,7.8c-5.39,3.28-11.51,5.19-17.81,5.57
			l-3.12,0.19c-7.88,0.48-15.72-1.46-22.48-5.55l-2.24-1.36c-7.88-4.77-13.8-12.19-16.71-20.93l0,0h0
			C321.46,430.93,316.02,437.45,316.92,444.73z"/>
		<path id="Left_Eye" class="st2" d="M350.33,417.73c0,0,2.11,8.43,12.01,11.76s15.97-2.63,19.8-7.55
			C382.14,421.95,368.02,415.1,350.33,417.73z"/>
		<path class="st2" d="M394.31,502.14c0,0,2.24-11.01,6.53-11.57s4.11,17.36,4.11,17.36S401.78,502.89,394.31,502.14z"/>
		<path class="st2" d="M423.2,515.94c0.02,0.53-14.76-6.53-14.76-6.53l0.9-88.67l14.62,2.12L423.2,515.94z"/>
		<path class="st2" d="M342.61,257.79c0,0,35.71-26.38,79.58-29.03c0.43-0.03,0.79,0.31,0.79,0.74l0.83,182.04
			c0,0-16.5-7.71-25.7-8.6c-9.2-0.89-0.3,10.98-0.3,10.98s-45.12-14.25-64.11-15.14c0,0,13.06-24.04,0.89-41.85
			C322.42,339.12,353.88,277.68,342.61,257.79z"/>
		<path class="st2" d="M296.6,413.03c0,0,1.78-25.53-10.98-28.5c-14.02-3.26-11.58,14.25-11.58,14.25S279.68,378.3,296.6,413.03z"/>
		<path class="st2" d="M275.82,405.02c0,0,11.87,57.29,17.22,67.68s12.76,8.61,12.76,8.61s-8.61-4.16-11.58-14.84
			c-2.97-10.69-15.14-61.74-15.14-66.79S276.41,402.94,275.82,405.02z"/>
		<path class="st2" d="M313.81,478.63c0,0,5.94,43.34,8.61,50.46s7.72,12.47,7.72,12.47l3.56-3.56c0,0-6.83-8.01-9.2-20.18
			C322.12,505.64,313.81,478.63,313.81,478.63z"/>
		<polygon class="st2" points="340.53,558.47 344.09,554.32 371.69,591.72 		"/>
		<path class="st2" d="M300.46,314.19c0,0-5.34,18.11-6.23,37.4c-0.89,19.29,6.23,46.6,6.23,46.6s-2.37-36.51-2.08-48.09
			C298.68,338.53,300.46,314.19,300.46,314.19z"/>
	</g>
	<path id="Contour" class="st3" d="M421.65,656.99c-2.88,0-35.85-0.95-79.17-42.55c-1.25-1.2-2.89-1.83-4.62-1.78
		c-1.74,0.05-3.35,0.78-4.53,2.05l-9.36,10.06c-5.19,5.58-11.8,9.66-19.12,11.79l-29.09,9.05c-1.91,0.59-3.84,0.88-5.75,0.88
		c-4.76,0-9.36-1.8-12.99-5.21c-5.08-4.78-7.11-11.68-5.44-18.45l6.76-27.39c1.29-9.67,5.92-18.66,13.06-25.32L288.66,554
		c4.65-4.34,6.74-10.67,5.6-16.93l-3.9-21.3c-0.84-4.57-3.62-8.54-7.62-10.89l-2.51-1.47c-5.51-3.23-9.58-8.36-11.46-14.46
		l-23.08-74.65c-2.28-7.36-2.77-15.27-1.42-22.86l0.47-2.67c1.85-10.42,7.61-19.56,16.21-25.74c1.56-1.12,2.46-2.86,2.47-4.78
		c0.01-1.92-0.87-3.67-2.42-4.81v0l-46.5-34.12c-7.55-5.54-12.05-14.08-12.35-23.43c-0.31-9.35,3.63-18.17,10.8-24.19l13.17-11.06
		c1.04-1.13,1.61-2.59,1.61-4.13v-20.13c0-8.51,6.92-15.52,15.42-15.63l30.09-0.4c4.62-0.06,9.13,1.5,12.73,4.39l14.39,11.57
		c3.64,2.93,8.81,3.05,12.59,0.3c14.92-10.88,45.77-30.09,84.69-36.42c21.88-3.56,43.42-2.55,64.03,2.99
		c24.49,6.59,47.93,19.69,69.67,38.92c1.71,1.52,3.92,2.27,6.23,2.12c2.31-0.15,4.41-1.18,5.93-2.9l14.61-16.65
		c5.28-6.02,13.15-8.88,21.06-7.65l2.4,0.37c10.89,1.69,19.16,10.92,19.66,21.93l0.42,9.27c0.02,0.49,0.21,0.96,0.53,1.33
		c0.42,0.49,1.03,0.77,1.67,0.77h10.79c5.34,0,10.38,2.06,14.18,5.81c3.81,3.75,5.95,8.75,6.03,14.09l0.27,17.14
		c0.09,5.49-2.1,10.84-6.01,14.7l-38.23,37.76c-3.32,3.28-5.41,7.64-5.88,12.28l-0.84,8.17c-0.22,2.14,0.86,4.2,2.74,5.24
		c8.75,4.83,14.57,13.65,15.56,23.59l0.65,6.54c0.35,3.48,0.1,6.96-0.74,10.35l-16.6,66.88c-2.59,10.43-8.04,19.89-15.76,27.35
		l-7.52,7.27l-2.59,2.37c-2.28,2.09-3.84,4.91-4.39,7.95l-3.29,18.12c-0.78,4.31,0.43,8.67,3.32,11.96l2.86,3.25
		c3.8,4.32,5.3,10.24,4,15.84l-0.62,2.7c-0.6,2.61,0.09,5.38,1.86,7.39l18.62,21.19c8.51,9.69,8.04,24.42-1.08,33.54
		c-4.77,4.77-11.38,7.39-18.13,7.17c-6.75-0.21-13.18-3.24-17.64-8.31c-8.28-9.41-17.78-20.19-20.91-23.75l-7.2-1.44
		c-2.22-0.44-4.54,0.33-6.06,2.02c-5.75,6.41-17.74,18.75-33.35,29.37c-19.24,13.09-38.12,19.74-56.12,19.74
		C421.73,656.99,421.7,656.99,421.65,656.99z M338.05,603.11c4.14,0,8.04,1.57,11.04,4.45c21.6,20.74,40.21,30.48,52.02,35
		c12.64,4.84,20.38,4.89,20.57,4.89c0,0,0,0,0,0l0.04,0l0.01,0c16.05,0,33.14-6.09,50.78-18.09c14.78-10.06,26.15-21.77,31.61-27.86
		c3.76-4.19,9.52-6.1,15.03-5l10.36,2.07l1.06,1.21c0,0,11.89,13.5,21.98,24.96c2.77,3.14,6.59,4.95,10.78,5.08
		c4.19,0.13,8.12-1.42,11.08-4.38c5.57-5.57,5.86-14.58,0.66-20.5l-18.62-21.19c-3.79-4.32-5.29-10.24-3.99-15.84l0.62-2.7
		c0.6-2.62-0.09-5.38-1.87-7.4l-2.86-3.25c-4.83-5.49-6.85-12.77-5.55-19.97l3.29-18.12c0.92-5.08,3.53-9.79,7.33-13.28l2.54-2.33
		l7.39-7.14c6.44-6.22,10.98-14.1,13.13-22.79l16.6-66.88c0.58-2.33,0.75-4.71,0.51-7.1l-0.65-6.54
		c-0.68-6.82-4.67-12.87-10.68-16.18c-5.24-2.89-8.23-8.61-7.62-14.56l0.84-8.17c0.7-6.84,3.78-13.26,8.67-18.09l38.23-37.76
		c2.06-2.04,3.22-4.86,3.17-7.76l-0.27-17.14c-0.09-5.79-4.88-10.51-10.67-10.51h-10.79c-3.43,0-6.68-1.5-8.92-4.1
		c-1.7-1.98-2.7-4.51-2.82-7.11l-0.42-9.27c-0.3-6.5-5.17-11.93-11.6-12.93l-2.4-0.37c-4.67-0.73-9.31,0.96-12.42,4.51l-14.61,16.65
		c-3.2,3.65-7.64,5.82-12.5,6.13c-4.85,0.31-9.53-1.29-13.15-4.5c-20.63-18.25-42.77-30.65-65.83-36.85
		c-19.29-5.19-39.48-6.13-60.01-2.79c-36.96,6.02-66.37,24.33-80.6,34.71c-7.25,5.29-17.2,5.05-24.19-0.57l-14.39-11.57
		c-1.87-1.5-4.23-2.32-6.62-2.28l-30.09,0.4c-3.31,0.04-6.01,2.78-6.01,6.09v20.13c0,4.13-1.59,8.02-4.49,10.96l-0.16,0.16
		l-13.55,11.37c-4.91,4.12-7.61,10.16-7.4,16.57c0.21,6.41,3.29,12.26,8.46,16.05l46.5,34.12c4.04,2.96,6.34,7.54,6.32,12.55
		c-0.03,5.01-2.38,9.56-6.45,12.48c-6.57,4.72-10.96,11.7-12.38,19.66l-0.47,2.67c-1.08,6.1-0.69,12.45,1.14,18.37l23.08,74.65
		c1.18,3.82,3.73,7.03,7.17,9.05l2.51,1.47c6.41,3.76,10.85,10.1,12.18,17.4l3.9,21.3c1.73,9.47-1.43,19.05-8.47,25.62l-17.26,16.11
		c-5.58,5.21-9.18,12.25-10.14,19.82l-0.03,0.28l-6.89,27.92c-0.84,3.38,0.18,6.83,2.72,9.22c2.54,2.39,6.04,3.2,9.36,2.16
		l29.22-9.08c5.68-1.65,10.81-4.81,14.84-9.14l9.36-10.06c2.94-3.16,6.93-4.97,11.25-5.09C337.74,603.11,337.9,603.11,338.05,603.11
		z"/>
	<g class="st4">
		<circle class="st5" cx="250.07" cy="305.98" r="3.04"/>
		<g class="st6">
			<path class="st2" d="M483.76,445.14l-16.03-1.39l-9.7-5.46l-7.42-18.46l-12.16,2.39l-0.31-1.56l12.67-2.5l18.26-10.49l14-1.58
				l0.07,0l18.33,0.99l9.61,9.4l-1.83,15.25l-10.84,9.03L483.76,445.14z M468.2,442.21l15.39,1.33l14.05-4.18l10.11-8.42l1.66-13.84
				l-8.62-8.44l-17.67-0.95l-13.54,1.53l-17.49,10.05l7.2,17.91L468.2,442.21z"/>
			<path class="st2" d="M481.98,433.85l-10.96-1.67l-6.99-9.11l7.34-4.33l12.1-0.74l11.04-1.06l4.48,5.85l-8.79,8.63L481.98,433.85z
				 M471.89,430.71l9.98,1.53l7.5-2.22l7.5-7.37l-3.09-4.04l-10.21,0.98l-11.74,0.72l-5.46,3.23L471.89,430.71z"/>
			<path class="st2" d="M421.39,579.36l0.14-8.77l-0.13,0l0.19-24.61l-0.41-9.51l17.33-5.3l19.54,7.3l20.44,14.17l-18.24,18.65
				l-22.01,7.67L421.39,579.36z M423.17,567.49L423,577.73l14.95-0.36l21.43-7.46l16.67-17.04l-18.73-12.98l-18.85-7.05l-15.64,4.78
				l0.31,7.2l12.8-4.94l19.57,5.73l11.26,7.15l-12.45,7.5l-16.62,6.84L423.17,567.49z M423.18,546.51l-0.15,19.4l14.32-0.37
				l16.29-6.71l10.1-6.09l-8.91-5.65L436,541.57L423.18,546.51z"/>
			<polygon class="st2" points="422.05,555.48 421.96,553.9 435.73,553.12 450.29,552.15 463.89,551.77 477.29,551.96 
				477.26,553.55 463.9,553.35 450.35,553.74 435.82,554.71 			"/>
			<polygon class="st2" points="482.74,418.82 482.3,406.82 486.4,392.15 487.93,392.58 483.89,407.01 484.32,418.76 			"/>
			<polygon class="st2" points="494.8,418.23 493.5,417.31 500.55,407.33 512.54,397.96 502.75,378.37 494.53,361.15 494.52,360.99 
				489.87,278.43 483.37,246.33 457.79,236.4 458.36,234.92 484.75,245.16 491.45,278.28 496.09,360.75 504.17,377.67 
				514.54,398.41 501.71,408.43 			"/>
			<polygon class="st2" points="517.6,442.92 507.95,431.92 496.46,422.54 510.11,415.99 523.72,417.56 523.53,419.14 
				510.38,417.62 499.4,422.89 509.05,430.77 518.79,441.88 			"/>
			<polygon class="st2" points="439.62,487.19 438.52,486.05 452.78,472.17 460.85,457.57 467.28,442.56 476.47,431.61 
				477.69,432.63 468.65,443.4 462.26,458.3 454.06,473.14 			"/>
			<polygon class="st2" points="470.82,419.68 468.53,408.52 469.3,394.33 467.37,378.89 464.26,352.85 464.26,352.81 
				463.49,265.23 457.4,236.29 436.52,230.22 436.96,228.69 458.75,235.03 465.07,265.06 465.07,265.13 465.85,352.75 468.95,378.7 
				470.89,394.28 470.12,408.4 472.38,419.36 			"/>
			
				<rect x="457.35" y="413.73" transform="matrix(0.2955 -0.9554 0.9554 0.2955 -79.5354 734.3823)" class="st2" width="1.59" height="14.77"/>
			<polygon class="st2" points="448.92,448.02 447.83,446.87 458.2,437.09 471.11,430.73 471.81,432.16 459.11,438.41 			"/>
			<polygon class="st2" points="473.04,591.82 465.27,583.02 459.11,570.96 453.3,559.91 449.38,552.89 454.46,545.98 
				456.96,538.85 482.48,482.59 481.25,460.24 481.25,460.2 482.17,444.35 481.14,433.12 482.72,432.97 483.76,444.33 
				483.76,444.39 482.84,460.24 484.09,482.89 458.42,539.47 455.87,546.73 451.26,553.01 454.69,559.15 460.52,570.23 
				466.59,582.12 474.23,590.77 			"/>
			<path class="st2" d="M422.63,581.65c0,0-16.03-1.42-20.22,1.37c-7.47,4.98-9.6,14.07-9.6,14.07s13.04-6.12,18.37-5.59
				c5.32,0.53,10.78,17.86,10.78,17.86L422.63,581.65z"/>
			<path class="st2" d="M420.92,614.54l1.26-33.17l0.73-0.03c1.93-0.08,18.93-0.76,22.46,0.87c3.67,1.69,7.7,13.75,8.14,15.12
				l0.57,1.74l-1.66-0.78c-0.13-0.06-12.91-6.02-17.95-5.52c-3.53,0.35-9.15,10.99-11.86,17.61L420.92,614.54z M423.71,582.9
				l-0.88,23.07c2.52-5.38,7.31-14.35,11.48-14.77c4.37-0.44,13.36,3.26,17.1,4.9c-1.75-4.91-4.67-11.5-6.71-12.44
				C442.13,582.46,429.32,582.68,423.71,582.9z"/>
			<polygon class="st2" points="483.33,483.59 452.92,473.33 441.04,456.69 437.75,441.63 439.31,441.29 442.52,456.04 
				453.92,471.99 483.24,481.89 511.17,469.27 531.5,451.24 537.56,436.84 536.03,414.97 529.84,384.05 517.02,351.02 
				515.85,308.65 510.09,264.82 483.61,246.4 484.52,245.1 511.57,263.91 517.44,308.56 518.6,350.7 531.37,383.61 537.61,414.81 
				539.17,437.1 532.82,452.18 512.04,470.61 			"/>
			<polygon class="st2" points="474.69,499.9 444.23,483.29 438.34,465.81 439.85,465.31 445.54,482.19 474.82,498.16 
				512.61,484.42 531.71,450.89 550.8,452.08 558.15,452.08 558.15,453.67 550.73,453.67 532.6,452.53 513.7,485.71 			"/>
			<polygon class="st2" points="547.68,474.73 546.12,474.46 550,452.73 556.19,420.6 556.58,401.01 553.51,390.65 555.03,390.2 
				558.17,400.79 557.76,420.83 551.56,453.02 			"/>
			<path class="st2" d="M518.61,532.82l-7.78-62.64l-8.49-16.59l-5.01-13.09l-8.15-9.25l1.19-1.05l8.34,9.46l5.08,13.28l8.58,16.77
				l6.96,56.05l6.24-18.38l4.33-27.95l16.44-5.48l11.06-21.36l14.76-54.12l-14.36,3.15l-22.35,26.26l18.23-38.06l12.95-5.85
				l7.5,13.33l-15.23,55.86l-11.44,22.08l-16.14,5.38l-4.2,27.13L518.61,532.82z M554.86,391.03l-12.7,26.52l14.79-17.37l15.12-3.32
				l-6.1-10.84L554.86,391.03z"/>
			<polygon class="st2" points="562.09,438.77 554.02,437.47 538.12,437.77 530.63,432.57 522.93,418.74 524.32,417.97 
				531.84,431.48 538.61,436.17 554.13,435.89 562.35,437.21 			"/>
			
				<rect x="538.42" y="463.1" transform="matrix(0.3819 -0.9242 0.9242 0.3819 -102.4068 789.7132)" class="st2" width="1.59" height="16.63"/>
			<path class="st2" d="M508.27,547.82l-5.6-10.72l-16.54-14.96l-17.33-8.81l-16.2-6.45l-12.27,1.81l-19.18,31.27l0.51-24.51
				l17.39-7.99l-1.53-85.07l-14.62,2.19l-0.24-1.57l15.11-2.27l9.65-18.92l22.49-8.29l17.29-1.97l0.13,0.03l26.75,5.9l10.38,20.76
				l-5.56,24.62l-15.47,11.11l-21.23,7.08l-20.96-2.37l-13.53-10.75l-8.55-22.03l1.46,81.14l12.17-1.79l16.7,6.65l17.55,8.92
				l16.91,15.29l4.58,8.77l2.8-3.63l6.95-12.36l1.38,0.78l-7.01,12.46L508.27,547.82z M423.22,516.47l-0.37,17.67l14.95-24.37
				L423.22,516.47z M461.88,457.15l20.16,2.28l20.67-6.89l14.78-10.61l5.3-23.48L513,398.88l-25.88-5.71l-16.84,1.91l-21.73,8.01
				l-9.39,18.41l9.88,25.46L461.88,457.15z"/>
			<polygon class="st2" points="420.9,618.74 421.09,610.07 422.68,610.1 422.52,617.09 442.72,616.4 456.66,608.36 461.75,605.24 
				482.46,578.02 499.35,556.91 500.58,557.9 483.71,578.99 462.83,606.44 457.47,609.72 443.17,617.97 			"/>
			<polygon class="st2" points="442.2,617.44 433.58,592.05 435.2,581.42 437.29,577.96 436.73,566.4 434.98,553.97 435.17,540.61 
				437.75,531.7 444.28,519.51 451.83,505.99 443.51,482.03 445.01,481.51 453.56,506.14 445.68,520.27 439.23,532.3 436.76,540.85 
				436.57,553.87 438.31,566.29 438.9,578.36 436.73,581.97 435.21,591.91 443.7,616.93 			"/>
			
				<rect x="421.78" y="578.51" transform="matrix(0.9788 -0.205 0.205 0.9788 -110.008 98.9668)" class="st2" width="1.59" height="3.66"/>
			
				<rect x="442.81" y="575.97" transform="matrix(0.7676 -0.6409 0.6409 0.7676 -264.5143 423.9935)" class="st2" width="19.25" height="1.59"/>
			<polygon class="st2" points="461.77,606.44 451.64,597.65 465.33,582.05 476.95,568.4 486.83,555.61 502.81,535.97 
				518.64,528.57 519.31,530 503.81,537.25 488.07,556.6 478.17,569.41 466.53,583.08 453.89,597.5 462.81,605.24 			"/>
			<polygon class="st2" points="472.89,549.77 471.48,549.04 486,520.89 515.81,505.98 526.4,506.77 526.28,508.36 516.12,507.6 
				487.17,522.07 			"/>
			<polygon class="st2" points="493.06,565.57 486.8,556.55 476.11,540.51 461.75,529.88 443.65,522.06 444.28,520.61 462.55,528.5 
				477.28,539.4 488.12,555.66 494.36,564.66 			"/>
			<polygon class="st2" points="483.33,577.95 476.89,569.32 471.33,558.65 472.74,557.91 478.24,568.47 484.6,577.01 			"/>
			<polygon class="st2" points="513.37,485.83 512.93,484.31 529.85,479.42 531.34,452.12 516.85,442.46 530.71,431.44 
				536.93,425.06 556.86,419.89 567.06,419.23 567.16,420.81 557.11,421.47 537.76,426.48 531.73,432.65 519.54,442.34 
				532.98,451.3 531.37,480.63 			"/>
			<polygon class="st2" points="523.83,419.12 523.42,417.59 536.25,414.19 542.51,400.43 553.72,389.85 554.81,391 543.82,401.37 
				537.38,415.53 			"/>
			
				<rect x="422.86" y="405.83" transform="matrix(0.9464 -0.323 0.323 0.9464 -107.9757 162.5392)" class="st2" width="25.82" height="1.59"/>
			<path class="st2" d="M422.37,422.86l-0.71-194.07l14.99-0.15c0.46,0,0.85,0.35,0.88,0.82l2.33,33.73l1.55,89.21l0,32.43
				l7.26,17.2l10.01,12.13l-1.22,1.01l-10.16-12.31l-7.48-17.71v-32.74l-1.55-89.18L436,230.28l-12.75,0.04l0.7,192.54
				L422.37,422.86z"/>
			<polygon class="st2" points="536.35,415.51 512.25,398.23 530.05,383.27 544.95,365.81 552.54,365.05 552.7,366.63 
				545.74,367.33 531.17,384.4 514.83,398.13 537.28,414.22 			"/>
			<polygon class="st2" points="543.96,400.95 542.37,400.85 544.55,366.64 538,338.56 540.63,302.22 542.21,302.34 539.6,338.44 
				546.15,366.5 			"/>
			<polygon class="st2" points="538.43,414 536.84,413.97 537.57,375.22 528.65,328.82 529.43,283.36 531.01,283.39 530.24,328.68 
				539.16,375.08 			"/>
			<polygon class="st2" points="423.88,393.48 423.23,392.03 440.37,384.24 468.08,377.99 504.93,379.17 530.73,383.05 
				530.49,384.62 504.74,380.74 468.24,379.59 440.87,385.75 			"/>
			<polygon class="st2" points="550.01,395.18 548.44,394.98 550.96,375.62 551.5,362.52 544.1,362.52 536.11,364.8 524.65,369.54 
				495.27,361.76 466.49,366 440.69,368.33 423.84,370.27 423.66,368.69 440.53,366.75 466.32,364.43 495.36,360.14 524.54,367.87 
				535.63,363.29 543.88,360.93 553.16,360.93 552.53,375.79 			"/>
			<polygon class="st2" points="544.73,313.93 540.66,308.89 528.86,293.8 512.27,278.18 487.17,261.96 460.75,249.62 
				437.28,246.16 423.39,246.73 423.33,245.15 437.36,244.56 437.44,244.57 461.21,248.08 461.32,248.13 487.94,260.57 
				513.31,276.98 530.03,292.73 541.9,307.9 545.96,312.93 			"/>
			<polygon class="st2" points="549.88,322.57 539.64,317.18 529.29,307.23 514.23,293.71 490.27,279.02 464.06,265.92 
				439.03,263.99 423.35,263.8 423.37,262.21 439.13,262.41 464.5,264.36 464.64,264.43 491.04,277.63 491.07,277.65 515.18,292.43 
				530.38,306.07 540.58,315.89 546.93,319.23 540.7,302.62 529.59,283.87 510.27,264.93 511.38,263.8 530.85,282.88 542.16,302 			
				"/>
			<polygon class="st2" points="544.93,329.51 538.78,327.73 529.51,320.63 516.21,309.25 491.28,297.27 464.26,284.73 
				439.39,281.84 423.32,281.06 423.4,279.48 439.55,280.26 464.69,283.18 491.96,295.84 517.08,307.91 530.53,319.41 
				539.51,326.29 545.37,327.99 			"/>
			<polygon class="st2" points="551.29,357.04 541.46,353.57 533.24,352.23 517.73,351.65 517.69,351.65 495.06,348.17 
				465.28,348.36 423.22,351.27 423.11,349.68 465.25,346.77 495.17,346.58 495.24,346.59 517.88,350.07 533.4,350.65 
				541.93,352.05 551.82,355.54 			"/>
			<polygon class="st2" points="549.67,345.96 538.67,340.94 530.38,338.43 517.04,334.57 493.43,329.92 465,325.47 423.37,325.86 
				423.35,324.28 465.11,323.89 465.18,323.9 493.72,328.36 517.41,333.02 530.83,336.91 539.28,339.47 550.33,344.52 			"/>
			<polygon class="st2" points="549.11,338.02 529.09,329.46 516.51,323.27 491.76,313.02 464.33,305.87 439.78,303.17 
				423.32,302.39 423.4,300.81 439.93,301.59 464.62,304.31 464.67,304.32 492.27,311.51 517.19,321.84 529.78,328.03 
				549.73,336.56 			"/>
			<path class="st7" d="M474.75,499.03"/>
		</g>
	</g>
</g>
<g id="Wireframe">
	<polyline class="st8" points="551.82,382.23 544.62,382.52 538.36,383.36 530.59,383.97 508.84,380.56 468.22,378.9 440.92,384.87 
		422.52,393.8 	"/>
	<polyline class="st8" points="422.52,369.56 440.63,367.48 466.58,365.13 495.45,361.06 514.57,365.82 532.09,368.76 
		543.38,369.41 552.06,370.58 	"/>
	<polyline class="st8" points="422.73,350.43 440.61,349.2 465.06,347.59 494.58,347.4 517.95,350.83 533.76,351.49 542.21,352.93 
		551.54,356.04 	"/>
	<polyline class="st8" points="423.6,325.06 440.18,324.93 464.81,324.66 493.5,329.13 517.31,333.81 531.38,337.86 539.33,340.33 
		549.97,345.13 	"/>
	<polyline class="st8" points="423.52,301.65 439.77,302.34 464.66,305.17 492.58,312.4 517.05,322.57 529.96,328.8 539.17,332.79 
		549.31,337.13 	"/>
	<polyline class="st8" points="423.44,280.26 439.34,281.01 464.47,284.01 491.66,296.5 516.59,308.52 529.64,319.57 539.48,326.89 
		549.46,329.51 	"/>
	<polyline class="st8" points="540.32,316.51 529.94,306.55 514.61,293 490.59,278.21 464.2,265.22 439.07,263.19 423.37,263 	"/>
	<polyline class="st8" points="423.36,245.97 437.88,245.43 460.96,248.92 487.23,260.99 512.55,277.26 529.95,293.86 
		540.97,307.83 545.53,312.66 	"/>
	<polygon class="st8" points="465.59,423.45 470.34,419.96 475.65,418.82 483.35,418.68 494.08,417.72 496.65,421.68 496.46,424.68 
		489.98,430.73 481.93,433.13 476.52,432.23 471.32,431.16 468.09,427.82 	"/>
	<polygon class="st8" points="482.84,444.33 468.18,442.9 458.78,437.66 452.49,422.01 458.43,412.41 472.81,407.97 483.15,406.86 
		497.51,407.71 510.09,416.94 508.34,431.19 497.84,440.17 	"/>
	<polygon class="st8" points="461.52,457.6 448.43,447.5 439.41,423.27 448.07,402.67 469.73,394.55 487.1,392.6 501.54,395.69 
		521.24,413.57 518.45,441.48 502.9,453.1 482.3,459.95 	"/>
	<polyline class="st8" points="465.59,423.45 452.49,422.01 439.41,423.27 422.37,423.79 	"/>
	<polyline class="st8" points="470.57,419.96 458.43,412.41 448.07,402.67 440.92,384.87 440.63,367.48 440.61,349.2 440.18,324.93 
		439.77,302.34 439.34,281.01 439.07,263.19 437.88,245.43 436.72,229.52 	"/>
	<polyline class="st8" points="475.65,418.82 472.81,407.97 470.09,394.51 468.22,378.9 466.58,365.13 465.06,347.59 464.81,324.66 
		464.66,305.17 464.47,284.01 464.2,265.22 460.96,248.92 458.69,235.83 	"/>
	<polyline class="st8" points="483.35,418.68 483.15,406.86 487.1,392.6 489.71,379.73 495.45,361.06 494.58,347.4 493.5,329.13 
		492.58,312.4 491.66,296.5 490.59,278.21 489.3,262.32 484.09,245.71 	"/>
	<polyline class="st8" points="494.08,417.72 497.51,407.71 502.58,396.58 509.17,379.88 515.07,365.91 517.95,350.83 
		517.31,333.81 517.05,322.57 516.59,308.52 514.61,293 512.55,277.26 511.41,264.92 	"/>
	<polyline class="st8" points="476.05,499.03 483.24,481.89 482.3,459.95 482.84,444.33 481.93,433.13 	"/>
	<polyline class="st8" points="489.98,430.73 497.84,440.17 502.9,453.1 511.38,469.69 518.3,483.59 	"/>
	<polyline class="st8" points="471.32,431.16 468.18,442.9 461.52,457.6 453.79,471.8 445.01,481.51 	"/>
	<polyline class="st8" points="443.03,451.68 448.43,447.5 458.78,437.66 468.09,427.82 	"/>
	<polyline class="st8" points="530.31,283.23 529.95,293.86 530.51,307.1 529.42,319.39 529.96,328.8 531.2,337.8 533.76,351.49 
		532.09,368.76 530.59,383.97 521.24,413.57 	"/>
	<line class="st8" x1="448.07" y1="402.67" x2="421.92" y2="411.16"/>
	<polyline class="st8" points="545.09,311.85 540.32,316.51 539.48,326.89 539.17,332.79 539.33,340.33 542.21,352.93 
		545.09,369.64 544.62,382.52 543.61,400.07 537.56,436.84 531.34,452.12 510.83,470.18 483.24,481.89 453.92,471.99 443.03,451.68 
		438.52,442.34 	"/>
	<polyline class="st8" points="422.63,566.7 437.5,566.24 454.09,559.52 464.3,552.67 454.98,546.41 436.13,540.8 422.57,545.57 	
		"/>
	<polyline class="st8" points="421.96,536.89 438.48,532 457.65,539.24 476.7,551.74 461.73,568.78 437.96,577.95 422.63,578.46 	
		"/>
	<polyline class="st8" points="555.54,390.93 551.82,382.23 552.06,370.58 551.98,356.04 550.51,345.32 549.85,337.25 
		549.46,329.51 549.07,321.72 545.09,311.85 538,294.67 530.31,283.23 510.83,264.36 484.09,245.71 458.1,235.6 436.72,229.52 
		423.33,229.52 421.42,618.09 442.2,617.44 462.81,605.24 473.9,590.4 485.53,574.75 497.13,559.98 507.61,546.55 518.32,530.47 
		530.83,480.1 531.34,452.12 518.45,441.48 508.34,431.19 496.46,424.68 	"/>
	<polyline class="st8" points="442.2,617.44 434.5,591.82 436.2,582.3 437.96,577.95 437.5,566.24 436.07,553.75 436.13,540.8 
		438.48,532 443.96,521.3 452.76,506.17 445.01,481.51 	"/>
	<polyline class="st8" points="421.46,609.36 434.5,591.82 452.43,596.17 462.19,605.96 	"/>
	<line class="st8" x1="445.85" y1="582.73" x2="461.73" y2="568.78"/>
	<polyline class="st8" points="496.65,421.68 509.41,417.1 520.56,412.94 543.61,400.07 555.48,390.28 	"/>
	<polyline class="st8" points="438.34,465.48 445.01,481.51 475.82,499.12 	"/>
	<polyline class="st8" points="479.65,543.87 462.09,529.13 443.96,521.3 433.58,521.3 	"/>
	<polyline class="st8" points="421.42,582.3 436.2,582.3 445.85,582.73 452.43,596.17 468.47,579.96 	"/>
	<path class="st8" d="M485.53,574.75"/>
	<polyline class="st8" points="438.34,423.3 438.34,508.65 421.92,516.56 	"/>
	<polyline class="st8" points="473.9,590.4 468.47,579.96 462.19,568.28 454.09,559.52 450.87,552.8 454.98,546.41 457.65,539.24 
		462.09,529.13 469.72,512.96 476.05,499.03 491.48,508.65 506.52,512.4 518.32,530.47 	"/>
	<polyline class="st8" points="438.34,508.65 433.58,521.3 422.57,536.71 	"/>
	<polyline class="st8" points="497.19,560.51 492.61,539.86 485.53,527.79 468.79,514.92 452.76,506.17 438.34,508.65 	"/>
	<polyline class="st8" points="530.83,480.1 518.3,484.41 506.52,512.4 492.61,539.86 484.35,549.48 477.22,551.7 464.3,552.67 
		450.87,552.8 436.07,553.75 421.53,554.93 	"/>
	<path class="st8" d="M498.94,557.42"/>
	<path class="st8" d="M483.24,481.89"/>
	<polyline class="st8" points="483.24,481.89 496.65,492.52 518.3,484.41 	"/>
	<polyline class="st8" points="468.47,579.96 484.35,549.48 479.65,543.87 487.17,522.07 496.87,491.83 	"/>
	<line class="st8" x1="486.02" y1="573.48" x2="484.35" y2="549.48"/>
	<polyline class="st8" points="556.07,401.79 560.96,397.78 563.57,398.73 560.37,408.29 557.11,420.67 553.53,437.48 
		550.68,452.53 544.62,467.51 539.17,473.54 532.47,479.66 547.89,473.54 558.15,453.67 562.09,438.77 567.95,420.67 571.46,406.86 
		572.79,393.8 566.43,385.16 555.03,390.2 	"/>
	<line class="st8" x1="545.09" y1="467.51" x2="547.89" y2="473.54"/>
	<polyline class="st8" points="558.15,453.67 550.68,452.53 531.34,452.12 	"/>
	<polyline class="st8" points="562.09,438.77 553.66,436.84 537.56,436.84 	"/>
	<polyline class="st8" points="567.95,420.67 557.11,420.67 539.17,425.2 	"/>
	<line class="st8" x1="563.57" y1="398.73" x2="572.79" y2="393.8"/>
	<line class="st8" x1="560.96" y1="397.78" x2="566.43" y2="385.16"/>
	<polyline class="st8" points="571.46,406.86 560.96,408.29 556.57,401.37 555.03,390.2 	"/>
	<line class="st8" x1="539.17" y1="425.2" x2="556.57" y2="401.37"/>
	<line class="st8" x1="518.5" y1="440.91" x2="540.35" y2="423.79"/>
</g>
<g id="Eye">
	<polygon class="st2" points="481.93,433.13 471.32,431.16 467.88,428.13 465.67,423.59 470.34,419.96 475.77,418.82 483.35,418.68 
		494.08,417.72 496.65,421.68 496.46,424.68 489.98,430.73 	"/>
</g>
<g id="Nodes" class="st4">
	<circle class="st9" cx="438.34" cy="509.01" r="2.13"/>
	<circle class="st9" cx="452.5" cy="506.94" r="2.13"/>
	<circle class="st9" cx="444.02" cy="521.73" r="2.13"/>
	<circle class="st9" cx="433.58" cy="521.73" r="2.13"/>
	<circle class="st9" cx="468.47" cy="515.3" r="2.13"/>
	<circle class="st9" cx="475.82" cy="499.12" r="2.13"/>
	<circle class="st9" cx="445.37" cy="481" r="2.13"/>
	<circle class="st9" cx="438.34" cy="466.79" r="2.13"/>
	<circle class="st9" cx="453.71" cy="471.57" r="2.13"/>
	<circle class="st9" cx="461.76" cy="457.11" r="2.13"/>
	<circle class="st9" cx="443.03" cy="451.46" r="2.13"/>
	<circle class="st9" cx="448.71" cy="447.17" r="2.13"/>
	<circle class="st9" cx="459.13" cy="437.18" r="2.13"/>
	<circle class="st9" cx="439.07" cy="423.8" r="2.13"/>
	<circle class="st9" cx="453.16" cy="422.39" r="2.13"/>
	<circle class="st9" cx="458.4" cy="412.48" r="2.13"/>
	<circle class="st9" cx="483.24" cy="481.89" r="2.13"/>
	<circle class="st9" cx="496.54" cy="492.52" r="2.13"/>
	<circle class="st9" cx="518.06" cy="484.36" r="2.13"/>
	<circle class="st9" cx="530.63" cy="480.37" r="2.13"/>
	<circle class="st9" cx="547.89" cy="473.54" r="2.13"/>
	<circle class="st9" cx="545.05" cy="467.36" r="2.13"/>
	<circle class="st9" cx="472.69" cy="407.95" r="2.13"/>
	<circle class="st9" cx="483.42" cy="406.86" r="2.13"/>
	<circle class="st9" cx="497.51" cy="407.71" r="2.13"/>
	<circle class="st9" cx="510" cy="416.87" r="2.13"/>
	<circle class="st9" cx="508.08" cy="431" r="2.13"/>
	<circle class="st9" cx="497.59" cy="440.15" r="2.13"/>
	<circle class="st9" cx="482.65" cy="444.33" r="2.13"/>
	<circle class="st9" cx="468.28" cy="442.55" r="2.13"/>
	<circle class="st9" cx="482.45" cy="459.71" r="2.13"/>
	<circle class="st9" cx="502.9" cy="453.1" r="2.13"/>
	<circle class="st9" cx="518.3" cy="441.15" r="2.13"/>
	<circle class="st9" cx="539.79" cy="425.06" r="2.13"/>
	<circle class="st9" cx="537.83" cy="436.44" r="2.13"/>
	<circle class="st9" cx="553.56" cy="436.84" r="2.13"/>
	<circle class="st9" cx="561.93" cy="438.77" r="2.13"/>
	<circle class="st9" cx="567.95" cy="420.81" r="2.13"/>
	<circle class="st9" cx="557.11" cy="420.67" r="2.13"/>
	<circle class="st9" cx="560.43" cy="408.17" r="2.13"/>
	<circle class="st9" cx="571.3" cy="407.16" r="2.13"/>
	<circle class="st9" cx="563.7" cy="399" r="2.13"/>
	<circle class="st9" cx="561.12" cy="397.57" r="2.13"/>
	<circle class="st9" cx="556.36" cy="401.82" r="2.13"/>
	<circle class="st9" cx="572.79" cy="394" r="2.13"/>
	<circle class="st9" cx="566.43" cy="385.16" r="2.13"/>
	<circle class="st9" cx="555.18" cy="390.28" r="2.13"/>
	<circle class="st9" cx="448.07" cy="403.07" r="2.13"/>
	<circle class="st9" cx="469.83" cy="394.81" r="2.13"/>
	<circle class="st9" cx="486.8" cy="392.68" r="2.13"/>
	<circle class="st9" cx="502.59" cy="396.58" r="2.13"/>
	<circle class="st9" cx="520.63" cy="412.62" r="2.13"/>
	<circle class="st9" cx="543.36" cy="399.91" r="2.13"/>
	<circle class="st9" cx="551.82" cy="381.97" r="2.13"/>
	<circle class="st9" cx="544.62" cy="382.52" r="2.13"/>
	<circle class="st9" cx="530.35" cy="384.09" r="2.13"/>
	<circle class="st9" cx="508.84" cy="380.56" r="2.13"/>
	<circle class="st9" cx="489.68" cy="379.84" r="2.13"/>
	<circle class="st9" cx="468.22" cy="378.9" r="2.13"/>
	<circle class="st9" cx="441.25" cy="384.97" r="2.13"/>
	<circle class="st9" cx="440.63" cy="367.47" r="2.13"/>
	<circle class="st9" cx="466.42" cy="365.01" r="2.13"/>
	<circle class="st9" cx="495.09" cy="361.06" r="2.13"/>
	<circle class="st9" cx="514.72" cy="365.82" r="2.13"/>
	<circle class="st9" cx="532.13" cy="368.46" r="2.13"/>
	<circle class="st9" cx="545.09" cy="369.77" r="2.13"/>
	<circle class="st9" cx="552.06" cy="370.07" r="2.13"/>
	<circle class="st9" cx="551.98" cy="356.04" r="2.13"/>
	<circle class="st9" cx="542.47" cy="353.09" r="2.13"/>
	<circle class="st9" cx="533.28" cy="351.72" r="2.13"/>
	<circle class="st9" cx="517.95" cy="350.52" r="2.13"/>
	<circle class="st9" cx="494.57" cy="347.4" r="2.13"/>
	<circle class="st9" cx="465.06" cy="347.59" r="2.13"/>
	<circle class="st9" cx="440.61" cy="349.2" r="2.13"/>
	<circle class="st9" cx="439.98" cy="324.74" r="2.13"/>
	<circle class="st9" cx="464.7" cy="324.74" r="2.13"/>
	<circle class="st9" cx="493.59" cy="329.51" r="2.13"/>
	<circle class="st9" cx="517.2" cy="334.32" r="2.13"/>
	<circle class="st9" cx="531.15" cy="337.95" r="2.13"/>
	<circle class="st9" cx="539.57" cy="340.83" r="2.13"/>
	<circle class="st9" cx="550.59" cy="345.52" r="2.13"/>
	<circle class="st9" cx="439.77" cy="302.34" r="2.13"/>
	<circle class="st9" cx="439.34" cy="281.24" r="2.13"/>
	<circle class="st9" cx="439.05" cy="263.32" r="2.13"/>
	<circle class="st9" cx="437.79" cy="245.67" r="2.13"/>
	<circle class="st9" cx="436.83" cy="229.77" r="2.13"/>
	<circle class="st9" cx="458.77" cy="235.98" r="2.13"/>
	<circle class="st9" cx="461.04" cy="249.23" r="2.13"/>
	<circle class="st9" cx="464.12" cy="265.68" r="2.13"/>
	<circle class="st9" cx="464.36" cy="284.21" r="2.13"/>
	<circle class="st9" cx="464.53" cy="305.22" r="2.13"/>
	<circle class="st9" cx="484.27" cy="246.13" r="2.13"/>
	<circle class="st9" cx="489.3" cy="262.43" r="2.13"/>
	<circle class="st9" cx="490.61" cy="278.34" r="2.13"/>
	<circle class="st9" cx="491.83" cy="296.46" r="2.13"/>
	<circle class="st9" cx="492.59" cy="312.66" r="2.13"/>
	<circle class="st9" cx="511.65" cy="265.04" r="2.13"/>
	<circle class="st9" cx="512.68" cy="277.57" r="2.13"/>
	<circle class="st9" cx="514.66" cy="293.41" r="2.13"/>
	<circle class="st9" cx="516.51" cy="308.65" r="2.13"/>
	<circle class="st9" cx="517.09" cy="322.5" r="2.13"/>
	<circle class="st9" cx="530.45" cy="283.42" r="2.13"/>
	<circle class="st9" cx="529.85" cy="294.93" r="2.13"/>
	<circle class="st9" cx="538.03" cy="294.82" r="2.13"/>
	<circle class="st9" cx="530.34" cy="307.12" r="2.13"/>
	<circle class="st9" cx="545.37" cy="312.55" r="2.13"/>
	<circle class="st9" cx="540.09" cy="316.35" r="2.13"/>
	<circle class="st9" cx="529.49" cy="319.2" r="2.13"/>
	<circle class="st9" cx="530.08" cy="328.81" r="2.13"/>
	<circle class="st9" cx="539.53" cy="326.68" r="2.13"/>
	<circle class="st9" cx="549.46" cy="329.32" r="2.13"/>
	<circle class="st9" cx="539.15" cy="332.71" r="2.13"/>
	<circle class="st9" cx="549.71" cy="337.34" r="2.13"/>
	<circle class="st9" cx="511.38" cy="469.69" r="2.13"/>
	<circle class="st9" cx="531.34" cy="452.12" r="2.13"/>
	<circle class="st9" cx="550.51" cy="452.52" r="2.13"/>
	<circle class="st9" cx="557.81" cy="453.82" r="2.13"/>
	<circle class="st9" cx="438.68" cy="532.28" r="2.13"/>
	<circle class="st9" cx="462.09" cy="529.13" r="2.13"/>
	<circle class="st9" cx="457.83" cy="539.32" r="2.13"/>
	<circle class="st9" cx="479.65" cy="543.33" r="2.13"/>
	<circle class="st9" cx="491.5" cy="508.66" r="2.13"/>
	<circle class="st9" cx="506.4" cy="512.48" r="2.13"/>
	<circle class="st9" cx="485.27" cy="527.59" r="2.13"/>
	<circle class="st9" cx="492.46" cy="539.96" r="2.13"/>
	<circle class="st9" cx="518.32" cy="530.45" r="2.13"/>
	<circle class="st9" cx="497.19" cy="560.17" r="2.13"/>
	<circle class="st9" cx="486.48" cy="573.69" r="2.13"/>
	<circle class="st9" cx="473.74" cy="590.94" r="2.13"/>
	<circle class="st9" cx="468.32" cy="579.96" r="2.13"/>
	<circle class="st9" cx="462.18" cy="568.05" r="2.13"/>
	<circle class="st9" cx="462.18" cy="605.66" r="2.13"/>
	<circle class="st9" cx="452.3" cy="596.17" r="2.13"/>
	<circle class="st9" cx="434.5" cy="592.55" r="2.13"/>
	<circle class="st9" cx="441.83" cy="616.98" r="2.13"/>
	<circle class="st9" cx="445.85" cy="582.41" r="2.13"/>
	<circle class="st9" cx="436.22" cy="582.73" r="2.13"/>
	<circle class="st9" cx="437.76" cy="577.83" r="2.13"/>
	<circle class="st9" cx="437.41" cy="566.27" r="2.13"/>
	<circle class="st9" cx="454.09" cy="559.52" r="2.13"/>
	<circle class="st9" cx="463.86" cy="552.35" r="2.13"/>
	<circle class="st9" cx="475.87" cy="551.92" r="2.13"/>
	<circle class="st9" cx="483.9" cy="549.8" r="2.13"/>
	<circle class="st9" cx="454.98" cy="546.71" r="2.13"/>
	<circle class="st9" cx="436.22" cy="541.45" r="2.13"/>
	<circle class="st9" cx="436.07" cy="553.75" r="2.13"/>
	<circle class="st9" cx="451.45" cy="552.81" r="2.13"/>
</g>
<g id="Layer_6">
	<g id="Tools">
		<g id="Tool1">
			<path class="st1" d="M488.29,330.44l75.01-86.91c1.12-1.3,2.77-2.03,4.48-1.96c3.5,0.15,9.87,2.5,11.69,9.58
				c0.47,1.83-0.02,3.79-1.3,5.19l-79.16,85.37c-1.29,1.42-2.24,3.1-2.79,4.94l-2.63,8.8c-0.66,2.22-2.14,4.1-4.14,5.27
				l-38.29,22.38c-1.52,0.89-3.27-0.73-2.49-2.31l19.33-39.58c1.19-2.44,3.41-4.22,6.05-4.86l7.57-1.84
				C484.22,333.88,486.54,332.46,488.29,330.44z"/>
			<polygon class="st2" points="455.98,375.3 484.49,349.03 482.47,342.75 472.81,345.22 			"/>
			<path class="st2" d="M488.98,344.54l-1.35-6.29l78.57-90.47c0,0,6.51-1.57,7.18,5.39l-35.69,42.43l31.43-40.63L488.98,344.54z"/>
		</g>
		<g id="Tool2">
			<path class="st1" d="M457.8,495.15l28.26,19.64c3.61,2.51,6.94,5.42,9.92,8.66l20.62,22.48c1.44,1.57,3.54,2.38,5.66,2.17
				l1.46-0.14c2.75-0.27,5.46,0.78,7.31,2.84l10.49,11.64c1.86,2.06,2.62,4.89,2.05,7.61l-0.56,2.68c-0.35,1.66,0.12,3.39,1.25,4.64
				l21.2,23.5c2.98,3.34,2.88,8.42-0.23,11.64h0c-3.37,3.5-8.97,3.5-12.34,0l-21.92-22.74c-1.12-1.16-2.7-1.75-4.3-1.6l-3.24,0.29
				c-2.6,0.24-5.16-0.7-6.99-2.56l-9.85-10c-1.62-1.64-2.52-3.85-2.51-6.16l0.01-2.37c0.54-2.29-0.15-4.69-1.81-6.36l-21.98-21.98
				c-3.75-3.75-6.99-7.99-9.62-12.59l-16.17-28.3C453.31,496.04,455.8,493.76,457.8,495.15z"/>
			<polygon class="st2" points="460.29,500.61 484.76,521.27 478.92,526.43 			"/>
			<path class="st2" d="M481.39,532.94l8.31-7.18l23.43,23.63c1.39,1.4,1.23,3.69-0.32,4.9l-2.01,1.55l-21.1-22.45L481.39,532.94z"
				/>
			<path class="st2" d="M510.12,566.61l12.57-11.22l11.66,11.84c1.83,1.86,1.73,4.88-0.22,6.62l-4.26,3.77l-11.45-12.12
				L510.12,566.61z"/>
			<path class="st2" d="M539.53,580.53l20.78,23.78c0.56,0.64,0.53,1.6-0.07,2.2l0,0c-0.64,0.64-1.69,0.63-2.32-0.04l-19.96-21.24
				l-4.94,0.22L539.53,580.53z"/>
		</g>
		<g id="Too3">
			<path class="st1" d="M470.38,409.96l14.42-35.02c1.08-2.62,3.28-4.61,5.99-5.42l15.46-4.64c3.23-0.97,6.13-2.83,8.37-5.36
				l70.77-80.15c4.93-5.58,13.41-6.21,19.11-1.4v0c6.1,5.15,6.53,14.4,0.93,20.09l-75.29,76.43c-1.97,2-3.45,4.43-4.32,7.1
				l-6.21,19.08c-1.04,3.19-3.69,5.58-6.97,6.28l-37.97,8.14C471.69,415.74,469.22,412.78,470.38,409.96z"/>
			<path class="st2" d="M513.59,368.03l-19,7.08c-2.18,0.81-3.94,2.48-4.88,4.61l-11.99,27.44l30.01-6.39
				c2.77-0.59,5.08-2.51,6.16-5.14l8.26-20.06l-12.64,20.38l-23.85,6.11l16.92-15.69l15.08-14.88L513.59,368.03z"/>
			<polygon class="st2" points="516.04,365.38 520.12,361.51 527.05,369.05 523.58,372.52 			"/>
			<path class="st2" d="M524.8,356.62l65.43-72.54c1.89-2.1,4.87-2.89,7.53-1.93c0.83,0.3,1.72,0.74,2.62,1.37
				c3.25,2.26,3.62,6.94,0.82,9.73l-41.54,41.35l34.87-39.93c0.97-1.11,0.81-2.82-0.36-3.72c-0.02-0.01-0.04-0.03-0.06-0.04
				c-1.04-0.79-2.53-0.63-3.41,0.34l-59.17,65.57l1.63,8.36L524.8,356.62z"/>
		</g>
		<g id="Tool4">
			<path class="st1" d="M306.81,344.6l-58.97-60.86c-6.18-6.38-16.41-6.39-22.6-0.02l0,0c-6.46,6.65-5.81,17.41,1.4,23.23
				l92.68,74.8c1.26,1.02,2.19,2.4,2.63,3.97c1.94,6.78,9.9,26.19,37.03,24.35c0.9-0.06,1.54-0.9,1.35-1.79l-0.82-3.75
				c-0.2-0.92,0.5-1.79,1.44-1.79h2.9c0.87,0,1.54-0.74,1.47-1.6c-0.53-6.12-4.27-27.82-30.52-30.93c-1.76-0.21-3.4-1.03-4.65-2.28
				L306.81,344.6z"/>
			<path class="st2" d="M228.02,290.94c0,0,4.49-9.65,14.82-2.24s37.94,36.14,37.94,36.14l-5.16,5.16l-20.88-19.75
				c0,0,4.04-4.71-0.45-8.76c-4.49-4.04-8.76,0.9-8.76,0.9S232.06,289.15,228.02,290.94z"/>
			<path class="st2" d="M275.96,336.86c0,0,6.78-8.38,8.28-8.88c1.5-0.5,19.26,18.96,19.26,18.96l-4.09,4.59
				c0,0-16.86-15.66-17.96-15.76C280.35,335.67,276.96,335.77,275.96,336.86z"/>
			<path class="st2" d="M344.38,394.48l9.21,9.08c0,0-23.2-1.5-24.55-22.15c0,0-7.33-7.34-17.06-10.63l11.37,3.44l-21.11-18.87
				l5.54-5.82l24.84,28.14c0,0,6.58-2.7,13.62,1.49c7.03,4.19,12.57,16.76,12.57,16.76l-9.81-6.97c-1.49-1.06-3.54-0.84-4.77,0.51
				c-0.63,0.69-0.94,1.56-0.94,2.43C343.3,392.84,343.66,393.77,344.38,394.48z"/>
		</g>
		<g id="Tool5">
			<path class="st1" d="M363.58,340.98l-4.23-1.44c-1.92-0.65-3.63-1.8-4.97-3.32l-50.26-57.17l-0.14-7.95
				c-0.05-2.83-1.14-5.54-3.06-7.62l-18.88-20.4c-2.09-2.26-5.01-3.59-8.09-3.69l-15.99-0.51c-4.1-0.13-7.51,3.14-7.54,7.25
				l-0.13,16.1c-0.02,2.7,1.13,5.28,3.16,7.06l23.37,20.52c1.82,1.6,4.19,2.42,6.61,2.3l9.25-0.48l50.07,56.33
				c1.32,1.48,2.23,3.28,2.66,5.22l0.73,3.32c0.39,1.76,1.83,3.09,3.61,3.34l1.4,0.19c1.31,0.18,2.39,1.1,2.78,2.36l1.98,6.43
				c0.63,2.04,2.02,3.76,3.88,4.81l26.13,14.68c1.38,0.78,3.01-0.51,2.58-2.03l-8.18-29.08c-0.75-2.67-2.79-4.79-5.42-5.65
				l-5.94-1.95c-1.32-0.43-2.24-1.62-2.33-3.01l-0.12-1.8C366.38,343.03,365.23,341.54,363.58,340.98z"/>
			<polygon class="st2" points="352.83,346.39 383.59,380.07 373.94,356.94 362.26,352 361.14,345.94 355.3,343.92 			"/>
			<path class="st2" d="M349.47,343.47l3.37-2.24l-52.02-57.85c-1.34-1.49-2.08-3.43-2.08-5.43v-2.44c0-4.49-1.8-8.79-4.99-11.95
				l-16.5-16.33c-0.77-0.76-1.79-1.21-2.87-1.27l-11.49-0.59c-2.41-0.12-4.46,1.71-4.61,4.12l-0.72,11.61
				c-0.09,1.4,0.5,2.77,1.59,3.66l22.52,18.55l-16.73-21.27c-0.94-1.19-1.39-2.69-1.28-4.2l0.03-0.41c0.26-3.41,3.27-5.93,6.67-5.57
				l0.24,0.02c1.35,0.14,2.62,0.74,3.59,1.69l12.83,12.51c2.47,2.4,3.88,5.69,3.94,9.13l0.04,2.51c0.06,3.3,1.36,6.46,3.65,8.84
				L349.47,343.47z"/>
		</g>
		<g id="Tool6">
			<path class="st1" d="M354.76,518.03l-36.83,41.71c-1.52,1.72-3.67,2.76-5.97,2.89l-5.31,0.29c-2.21,0.12-4.3,1.09-5.81,2.72
				l-16.67,17.87c-1.81,1.94-3.17,4.26-3.97,6.79l-7.67,24.15c-1.36,4.29,2.67,8.33,6.96,6.99l24.95-7.8
				c2.87-0.9,5.46-2.5,7.54-4.66l15.74-16.32c1.81-1.8,2.73-4.3,2.51-6.85l-0.46-5.21c-0.2-2.28,0.52-4.56,2.01-6.3l37.93-44.41
				c1.15-1.34,2.15-2.81,2.98-4.37l14.69-27.57c1.32-2.47-1.69-4.97-3.88-3.23l-25.64,20.36
				C356.76,515.96,355.71,516.95,354.76,518.03z"/>
			<polygon class="st2" points="362.48,526.06 333.74,558.39 329.7,555.25 359.11,523.37 			"/>
			<path class="st2" d="M327.46,557.49l3.82,2.69l-12.12,14.37l-5.14,0.13c-2.31,0.06-4.48,1.08-6.01,2.81l-13.36,15.17
				c-0.57,0.64-1.03,1.37-1.37,2.16l-4.33,9.91c-0.57,1.3,0.64,2.67,2,2.27l9.59-2.81l22-21.33l1.12,3.59l-21.78,21.78l-16.99,4.29
				c-1.77,0.45-3.29-1.33-2.57-3.01l6.66-16.02c0.52-1.24,1.24-2.39,2.13-3.4l15.75-17.76c1.41-1.59,3.41-2.56,5.53-2.68l4.76-0.26
				L327.46,557.49z"/>
			<polygon class="st2" points="361.35,520 382.91,499.57 364.95,523.15 			"/>
		</g>
	</g>
</g>
<g id="Eye_nodes" class="st4">
	<circle class="st10" cx="466.13" cy="423.08" r="2.13"/>
	<circle class="st10" cx="470.29" cy="419.87" r="2.13"/>
	<circle class="st10" cx="475.55" cy="418.83" r="2.13"/>
	<circle class="st10" cx="483.14" cy="418.6" r="2.13"/>
	<circle class="st10" cx="493.8" cy="417.63" r="2.13"/>
	<circle class="st10" cx="496.11" cy="421.34" r="2.13"/>
	<circle class="st10" cx="495.8" cy="424.32" r="2.13"/>
	<circle class="st10" cx="490.05" cy="430.35" r="2.13"/>
	<circle class="st10" cx="481.73" cy="432.76" r="2.13"/>
	<circle class="st10" cx="471.17" cy="430.63" r="2.13"/>
	<circle class="st10" cx="467.81" cy="427.6" r="2.13"/>
</g>
</svg>
