<?xml version="1.0" encoding="UTF-8"?>
<svg xmlns="http://www.w3.org/2000/svg" viewBox="0 0 432.99 458.87">
  <defs>
    <style>
      .cls-1 {
        fill: none;
        stroke: #fff;
        stroke-miterlimit: 10;
        stroke-width: 3px;
      }

      .cls-2 {
        fill: #fff;
      }

      .cls-2, .cls-3 {
        stroke-width: 0px;
      }

      .cls-3 {
        fill: #1d1d1b;
      }
    </style>
  </defs>
  <g id="_Шар_1" data-name="Шар 1">
    <path id="Head_Shape" data-name="Head Shape" class="cls-3" d="m355.61,286.47c-7.78,7.78-16.16,7.78-16.16,7.78,0,0-5.39,32.33-11.38,47.29-5.98,14.96-45.49,84.41-100.57,89.79l-5.99.6-.04-.08-5.88-.59c-55.07-5.39-94.59-74.83-100.57-89.79-5.99-14.97-11.38-47.29-11.38-47.29,0,0-8.38,0-16.16-7.78-7.78-7.78-29.93-81.41-22.75-97.58,7.18-16.16,20.95-7.78,20.95-7.78-8.98-47.89,6.59-76.03,6.59-76.03C127.59,21.2,219.78,21.2,219.78,21.2c0,0,95.72.07,131.04,83.88,0,0,15.56,28.14,6.59,76.03,0,0,13.77-8.38,20.95,7.78,7.18,16.16-14.97,89.79-22.75,97.58Z"/>
    <g id="Shades">
      <path id="Left_Eyelead" data-name="Left Eyelead" class="cls-2" d="m141.58,228.85s20.2,18.26,43.1,2.24l3.29,5.24s-10.78,10.18-28.29,9.13c-17.51-1.05-23.05-16.46-23.05-16.46l4.94-.15Z"/>
      <path class="cls-2" d="m114.8,246.61l.03.22c.83,6.66,4.23,12.74,9.48,16.94l15.16,12.13c6.77,5.41,11.32,13.11,12.82,21.64l8.26,47.13c1.46,8.33,4.24,16.38,8.23,23.83l7.93,14.8c2.01,3.75,6.99,4.64,10.17,1.82,4.89-4.33,8.71-11.29,32.96-10.49l-.05-6.31-16.16-.45-24.92-11.67,19.39-11.2c2.79-1.73,6.09-2.45,9.34-2.04l7.95,3.01.13-10.2s-25.7-.33-27.95-19.88c-1.44-12.46,2.62-27.68,5.76-37.07,2.58-7.74,4.8-15.6,6.6-23.57l1.93-8.55-12.84,7.8c-5.39,3.28-11.51,5.19-17.81,5.57l-3.12.19c-7.88.48-15.72-1.46-22.48-5.55l-2.24-1.36c-7.88-4.77-13.8-12.19-16.71-20.93h0s0,0,0,0c-7.32.41-12.76,6.93-11.85,14.2Z"/>
      <path id="Left_Eye" data-name="Left Eye" class="cls-2" d="m148.21,219.62s2.11,8.43,12.01,11.76,15.97-2.63,19.8-7.55c0,0-14.12-6.85-31.81-4.21Z"/>
      <path class="cls-2" d="m192.19,304.03s2.24-11.01,6.53-11.57,4.11,17.36,4.11,17.36c0,0-3.17-5.04-10.64-5.79Z"/>
      <path class="cls-2" d="m221.08,317.83c.02.53-14.76-6.53-14.76-6.53l.9-88.67,14.62,2.12-.76,93.08Z"/>
      <path class="cls-2" d="m140.48,59.68s35.71-26.38,79.58-29.03c.43-.03.79.31.79.74l.83,182.04s-16.5-7.71-25.7-8.6-.3,10.98-.3,10.98c0,0-45.12-14.25-64.11-15.14,0,0,13.06-24.04.89-41.85s19.29-79.25,8.01-99.14Z"/>
      <path class="cls-2" d="m94.47,214.92s1.78-25.53-10.98-28.5c-14.02-3.26-11.58,14.25-11.58,14.25,0,0,5.64-20.48,22.56,14.25Z"/>
      <path class="cls-2" d="m73.7,206.9s11.87,57.29,17.22,67.68,12.76,8.61,12.76,8.61c0,0-8.61-4.16-11.58-14.84-2.97-10.69-15.14-61.74-15.14-66.79s-2.67,3.27-3.27,5.34Z"/>
      <path class="cls-2" d="m111.69,280.52s5.94,43.34,8.61,50.46,7.72,12.47,7.72,12.47l3.56-3.56s-6.83-8.01-9.2-20.18c-2.37-12.17-10.69-39.18-10.69-39.18Z"/>
      <polygon class="cls-2" points="138.41 360.36 141.97 356.21 169.57 393.61 138.41 360.36"/>
      <path class="cls-2" d="m98.33,116.07s-5.34,18.11-6.23,37.4c-.89,19.29,6.23,46.6,6.23,46.6,0,0-2.37-36.51-2.08-48.09.3-11.58,2.08-35.92,2.08-35.92Z"/>
    </g>
  </g>
  <g id="Wireframe">
    <polyline class="cls-1" points="349.69 184.12 342.5 184.41 336.24 185.25 328.46 185.86 306.72 182.45 266.09 180.79 238.8 186.76 220.4 195.69"/>
    <polyline class="cls-1" points="220.4 171.45 238.51 169.37 264.46 167.02 293.33 162.95 312.44 167.71 329.97 170.64 341.25 171.3 349.94 172.47"/>
    <polyline class="cls-1" points="220.61 152.31 238.48 151.09 262.94 149.47 292.46 149.29 315.83 152.71 331.64 153.37 340.09 154.82 349.42 157.92"/>
    <polyline class="cls-1" points="221.48 126.95 238.05 126.82 262.68 126.55 291.38 131.02 315.19 135.69 329.26 139.74 337.21 142.22 347.85 147.02"/>
    <polyline class="cls-1" points="221.39 103.54 237.64 104.22 262.54 107.06 290.45 114.28 314.93 124.46 327.84 130.68 337.05 134.68 347.18 139.01"/>
    <polyline class="cls-1" points="221.31 82.15 237.22 82.9 262.34 85.9 289.54 98.39 314.47 110.4 327.51 121.46 337.36 128.78 347.34 131.4"/>
    <polyline class="cls-1" points="338.2 118.39 327.81 108.44 312.49 94.89 288.46 80.1 262.08 67.11 236.95 65.07 221.25 64.89"/>
    <polyline class="cls-1" points="221.24 47.86 235.75 47.32 258.84 50.81 285.11 62.88 310.43 79.15 327.82 95.75 338.84 109.72 343.41 114.54"/>
    <polygon class="cls-1" points="263.47 225.33 268.21 221.84 273.53 220.71 281.23 220.57 291.95 219.61 294.53 223.57 294.33 226.57 287.86 232.62 279.81 235.02 274.39 234.12 269.19 233.04 265.96 229.7 263.47 225.33"/>
    <polygon class="cls-1" points="280.72 246.22 266.06 244.78 256.65 239.55 250.37 223.9 256.31 214.29 270.68 209.86 281.03 208.75 295.39 209.59 307.97 218.83 306.22 233.08 295.72 242.06 280.72 246.22"/>
    <polygon class="cls-1" points="259.39 259.49 246.31 249.39 237.28 225.15 245.94 204.56 267.61 196.44 284.98 194.48 299.42 197.58 319.12 215.45 316.32 243.37 300.77 254.99 280.18 261.84 259.39 259.49"/>
    <polyline class="cls-1" points="263.47 225.33 250.37 223.9 237.28 225.15 220.25 225.67"/>
    <polyline class="cls-1" points="268.44 221.84 256.31 214.29 245.94 204.56 238.8 186.76 238.51 169.37 238.48 151.09 238.05 126.82 237.64 104.22 237.22 82.9 236.95 65.07 235.75 47.32 234.6 31.41"/>
    <polyline class="cls-1" points="273.53 220.71 270.68 209.86 267.97 196.4 266.09 180.79 264.46 167.02 262.94 149.47 262.68 126.55 262.54 107.06 262.34 85.9 262.08 67.11 258.84 50.81 256.56 37.72"/>
    <polyline class="cls-1" points="281.23 220.57 281.03 208.75 284.98 194.48 287.59 181.62 293.33 162.95 292.46 149.29 291.38 131.02 290.45 114.28 289.54 98.39 288.46 80.1 287.18 64.21 281.97 47.59"/>
    <polyline class="cls-1" points="291.95 219.61 295.39 209.59 300.46 198.47 307.05 181.77 312.95 167.79 315.83 152.71 315.19 135.69 314.93 124.46 314.47 110.4 312.49 94.89 310.43 79.15 309.29 66.81"/>
    <polyline class="cls-1" points="273.93 300.92 281.12 283.78 280.18 261.84 280.72 246.22 279.81 235.02"/>
    <polyline class="cls-1" points="287.86 232.62 295.72 242.06 300.77 254.99 309.26 271.58 316.18 285.48"/>
    <polyline class="cls-1" points="269.19 233.04 266.06 244.78 259.39 259.49 251.67 273.69 242.88 283.4"/>
    <polyline class="cls-1" points="240.9 253.57 246.31 249.39 256.65 239.55 265.96 229.7"/>
    <polyline class="cls-1" points="328.19 85.12 327.82 95.75 328.38 108.98 327.3 121.28 327.84 130.68 329.08 139.69 331.64 153.37 329.97 170.64 328.46 185.86 319.12 215.45"/>
    <line class="cls-1" x1="245.94" y1="204.56" x2="219.79" y2="213.05"/>
    <polyline class="cls-1" points="342.97 113.74 338.2 118.39 337.36 128.78 337.05 134.68 337.21 142.22 340.09 154.82 342.97 171.53 342.5 184.41 341.49 201.95 335.44 238.72 329.22 254.01 308.71 272.06 281.12 283.78 251.79 273.87 240.9 253.57 236.39 244.23"/>
    <polyline class="cls-1" points="220.5 368.58 235.38 368.13 251.96 361.41 262.18 354.56 252.86 348.3 234.01 342.69 220.45 347.45"/>
    <polyline class="cls-1" points="219.84 338.78 236.36 333.89 255.53 341.13 274.57 353.62 259.61 370.67 235.83 379.84 220.5 380.34"/>
    <polyline class="cls-1" points="353.42 192.82 349.69 184.12 349.94 172.47 349.86 157.92 348.39 147.21 347.73 139.14 347.34 131.4 346.95 123.61 342.97 113.74 335.88 96.56 328.19 85.12 308.71 66.25 281.97 47.59 255.98 37.49 234.6 31.41 221.2 31.41 219.3 419.97 240.07 419.33 260.69 407.13 271.78 392.29 283.4 376.63 295 361.87 305.49 348.44 316.2 332.35 328.7 281.99 329.22 254.01 316.32 243.37 306.22 233.08 294.33 226.57"/>
    <polyline class="cls-1" points="240.07 419.33 232.38 393.71 234.07 384.18 235.83 379.84 235.38 368.13 233.94 355.63 234.01 342.69 236.36 333.89 241.83 323.19 250.64 308.06 242.88 283.4"/>
    <polyline class="cls-1" points="219.34 411.25 232.38 393.71 250.31 398.06 260.07 407.85"/>
    <line class="cls-1" x1="243.73" y1="384.61" x2="259.61" y2="370.67"/>
    <polyline class="cls-1" points="294.53 223.57 307.29 218.98 318.43 214.83 341.49 201.95 353.36 192.17"/>
    <polyline class="cls-1" points="236.22 267.37 242.88 283.4 273.7 301"/>
    <polyline class="cls-1" points="277.52 345.76 259.96 331.02 241.83 323.19 231.46 323.19"/>
    <polyline class="cls-1" points="219.3 384.18 234.07 384.18 243.73 384.61 250.31 398.06 266.35 381.85"/>
    <polyline class="cls-1" points="236.22 225.19 236.22 310.54 219.79 318.44"/>
    <polyline class="cls-1" points="271.78 392.29 266.35 381.85 260.07 370.17 251.96 361.41 248.75 354.69 252.86 348.3 255.53 341.13 259.96 331.02 267.59 314.84 273.93 300.92 289.35 310.54 304.4 314.28 316.2 332.35"/>
    <polyline class="cls-1" points="236.22 310.54 231.46 323.19 220.45 338.6"/>
    <polyline class="cls-1" points="295.07 362.4 290.49 341.75 283.4 329.68 266.67 316.81 250.64 308.06 236.22 310.54"/>
    <polyline class="cls-1" points="328.7 281.99 316.18 286.29 304.4 314.28 290.49 341.75 282.23 351.36 275.09 353.58 262.18 354.56 248.75 354.69 233.94 355.63 219.4 356.82"/>
    <polyline class="cls-1" points="281.12 283.78 294.53 294.41 316.18 286.29"/>
    <polyline class="cls-1" points="266.35 381.85 282.23 351.36 277.52 345.76 285.05 323.96 294.75 293.72"/>
    <line class="cls-1" x1="283.9" y1="375.37" x2="282.23" y2="351.36"/>
    <polyline class="cls-1" points="353.94 203.67 358.83 199.67 361.45 200.61 358.25 210.18 354.98 222.56 351.4 239.37 348.56 254.42 342.5 269.4 337.05 275.43 330.35 281.55 345.77 275.43 356.02 255.55 359.97 240.66 365.83 222.56 369.34 208.75 370.67 195.69 364.31 187.05 352.91 192.09"/>
    <line class="cls-1" x1="342.97" y1="269.4" x2="345.77" y2="275.43"/>
    <polyline class="cls-1" points="356.02 255.55 348.56 254.42 329.22 254.01"/>
    <polyline class="cls-1" points="359.97 240.66 351.54 238.73 335.44 238.72"/>
    <polyline class="cls-1" points="365.83 222.56 354.98 222.56 337.05 227.08"/>
    <line class="cls-1" x1="361.45" y1="200.61" x2="370.67" y2="195.69"/>
    <line class="cls-1" x1="358.83" y1="199.67" x2="364.31" y2="187.05"/>
    <polyline class="cls-1" points="369.34 208.75 358.83 210.18 354.45 203.26 352.91 192.09"/>
    <line class="cls-1" x1="337.05" y1="227.08" x2="354.45" y2="203.26"/>
    <line class="cls-1" x1="316.38" y1="242.8" x2="338.23" y2="225.67"/>
  </g>
  <g id="Eye">
    <polygon class="cls-2" points="279.81 235.02 269.19 233.04 265.76 230.02 263.55 225.47 268.21 221.84 273.65 220.71 281.23 220.57 291.95 219.61 294.53 223.57 294.33 226.57 287.86 232.62 279.81 235.02"/>
  </g>
  <g id="Layer_6" data-name="Layer 6">
    <g id="Tools">
      <g id="Tool1">
        <path class="cls-3" d="m286.16,132.33l75.01-86.91c1.12-1.3,2.77-2.03,4.48-1.96,3.5.15,9.87,2.5,11.69,9.58.47,1.83-.02,3.79-1.3,5.19l-79.16,85.37c-1.29,1.42-2.24,3.1-2.79,4.94l-2.63,8.8c-.66,2.22-2.14,4.1-4.14,5.27l-38.29,22.38c-1.52.89-3.27-.73-2.49-2.31l19.33-39.58c1.19-2.44,3.41-4.22,6.05-4.86l7.57-1.84c2.59-.63,4.92-2.05,6.66-4.07Z"/>
        <polygon class="cls-2" points="253.85 177.18 282.36 150.92 280.34 144.63 270.69 147.1 253.85 177.18"/>
        <path class="cls-2" d="m286.85,146.43l-1.35-6.29,78.57-90.47s6.51-1.57,7.18,5.39l-35.69,42.43,31.43-40.63-80.14,89.57Z"/>
      </g>
      <g id="Tool2">
        <path class="cls-3" d="m255.68,297.04l28.26,19.64c3.61,2.51,6.94,5.42,9.92,8.66l20.62,22.48c1.44,1.57,3.54,2.38,5.66,2.17l1.46-.14c2.75-.27,5.46.78,7.31,2.84l10.49,11.64c1.86,2.06,2.62,4.89,2.05,7.61l-.56,2.68c-.35,1.66.12,3.39,1.25,4.64l21.2,23.5c2.98,3.34,2.88,8.42-.23,11.64h0c-3.37,3.5-8.97,3.5-12.34,0l-21.92-22.74c-1.12-1.16-2.7-1.75-4.3-1.6l-3.24.29c-2.6.24-5.16-.7-6.99-2.56l-9.85-10c-1.62-1.64-2.52-3.85-2.51-6.16v-2.37c.55-2.29-.13-4.69-1.8-6.36l-21.98-21.98c-3.75-3.75-6.99-7.99-9.62-12.59l-16.17-28.3c-1.2-2.11,1.28-4.39,3.28-3Z"/>
        <polygon class="cls-2" points="258.17 302.5 282.64 323.15 276.8 328.32 258.17 302.5"/>
        <path class="cls-2" d="m279.27,334.83l8.31-7.18,23.43,23.63c1.39,1.4,1.23,3.69-.32,4.9l-2.01,1.55-21.1-22.45-8.31-.45Z"/>
        <path class="cls-2" d="m308,368.5l12.57-11.22,11.66,11.84c1.83,1.86,1.73,4.88-.22,6.62l-4.26,3.77-11.45-12.12-8.31,1.12Z"/>
        <path class="cls-2" d="m337.41,382.42l20.78,23.78c.56.64.53,1.6-.07,2.2h0c-.64.64-1.69.63-2.32-.04l-19.96-21.24-4.94.22,6.51-4.94Z"/>
      </g>
      <g id="Too3">
        <path class="cls-3" d="m268.26,211.85l14.42-35.02c1.08-2.62,3.28-4.61,5.99-5.42l15.46-4.64c3.23-.97,6.13-2.83,8.37-5.36l70.77-80.15c4.93-5.58,13.42-6.21,19.11-1.4h0c6.1,5.15,6.53,14.4.93,20.09l-75.29,76.43c-1.97,2-3.45,4.43-4.32,7.1l-6.21,19.08c-1.04,3.19-3.69,5.58-6.97,6.28l-37.97,8.14c-2.97.64-5.44-2.32-4.29-5.13Z"/>
        <path class="cls-2" d="m311.47,169.92l-19,7.08c-2.18.81-3.94,2.48-4.88,4.61l-11.99,27.44,30.01-6.39c2.77-.59,5.08-2.51,6.16-5.14l8.26-20.06-12.64,20.38-23.85,6.11,16.92-15.69,15.08-14.88-4.08-3.46Z"/>
        <polygon class="cls-2" points="313.92 167.27 317.99 163.4 324.92 170.94 321.46 174.41 313.92 167.27"/>
        <path class="cls-2" d="m322.68,158.51l65.43-72.54c1.89-2.1,4.87-2.89,7.53-1.93.83.3,1.72.74,2.62,1.37,3.25,2.26,3.62,6.94.82,9.73l-41.54,41.35,34.87-39.93c.97-1.11.81-2.82-.36-3.72-.02-.01-.04-.03-.06-.04-1.04-.79-2.53-.63-3.41.34l-59.17,65.57,1.63,8.36-8.36-8.56Z"/>
      </g>
      <g id="Tool4">
        <path class="cls-3" d="m104.69,146.48l-58.97-60.86c-6.18-6.38-16.41-6.39-22.6-.02h0c-6.46,6.65-5.81,17.41,1.4,23.23l92.68,74.8c1.26,1.02,2.19,2.4,2.63,3.97,1.94,6.78,9.9,26.19,37.03,24.35.9-.06,1.54-.9,1.35-1.79l-.82-3.75c-.2-.92.5-1.79,1.44-1.79h2.9c.87,0,1.54-.74,1.47-1.6-.53-6.12-4.27-27.82-30.52-30.93-1.76-.21-3.4-1.03-4.65-2.28l-23.33-23.33Z"/>
        <path class="cls-2" d="m25.9,92.83s4.49-9.65,14.82-2.24,37.94,36.14,37.94,36.14l-5.16,5.16-20.88-19.75s4.04-4.71-.45-8.76c-4.49-4.04-8.76.9-8.76.9,0,0-13.47-13.24-17.51-11.45Z"/>
        <path class="cls-2" d="m73.84,138.75s6.78-8.38,8.28-8.88,19.26,18.96,19.26,18.96l-4.09,4.59s-16.86-15.66-17.96-15.76-4.49,0-5.49,1.1Z"/>
        <path class="cls-2" d="m142.25,196.36l9.21,9.08s-23.2-1.5-24.55-22.15c0,0-7.33-7.34-17.06-10.63l11.37,3.44-21.11-18.87,5.54-5.82,24.84,28.14s6.58-2.7,13.62,1.49c7.03,4.19,12.57,16.76,12.57,16.76l-9.81-6.97c-1.49-1.06-3.54-.84-4.77.51-.63.69-.94,1.56-.94,2.43,0,.94.36,1.87,1.08,2.57Z"/>
      </g>
      <g id="Tool5">
        <path class="cls-3" d="m161.46,142.86l-4.23-1.44c-1.92-.65-3.63-1.8-4.97-3.32l-50.26-57.17-.14-7.95c-.05-2.83-1.14-5.54-3.06-7.62l-18.88-20.4c-2.09-2.26-5.01-3.59-8.09-3.69l-15.99-.51c-4.1-.13-7.51,3.14-7.54,7.25l-.13,16.1c-.02,2.7,1.13,5.28,3.16,7.06l23.37,20.52c1.82,1.6,4.19,2.42,6.61,2.3l9.25-.48,50.07,56.33c1.32,1.48,2.23,3.28,2.66,5.22l.73,3.32c.39,1.76,1.83,3.09,3.61,3.34l1.4.19c1.31.18,2.39,1.1,2.78,2.36l1.98,6.43c.63,2.04,2.02,3.76,3.88,4.81l26.13,14.68c1.38.78,3.01-.51,2.58-2.03l-8.18-29.08c-.75-2.67-2.79-4.79-5.42-5.65l-5.94-1.95c-1.32-.43-2.24-1.62-2.33-3.01l-.12-1.8c-.11-1.74-1.26-3.23-2.9-3.79Z"/>
        <polygon class="cls-2" points="150.71 148.28 181.47 181.95 171.81 158.83 160.14 153.89 159.02 147.83 153.18 145.81 150.71 148.28"/>
        <path class="cls-2" d="m147.34,145.36l3.37-2.24-52.02-57.85c-1.34-1.49-2.08-3.43-2.08-5.43v-2.44c0-4.49-1.8-8.79-4.99-11.95l-16.5-16.33c-.77-.76-1.79-1.21-2.87-1.27l-11.49-.59c-2.41-.12-4.46,1.71-4.61,4.12l-.72,11.61c-.09,1.4.5,2.77,1.59,3.66l22.52,18.55-16.73-21.27c-.94-1.19-1.39-2.69-1.28-4.2l.03-.41c.26-3.41,3.27-5.93,6.67-5.57l.24.02c1.35.14,2.62.74,3.59,1.69l12.83,12.51c2.47,2.4,3.88,5.69,3.94,9.13l.04,2.51c.06,3.3,1.36,6.46,3.65,8.84l54.8,56.91Z"/>
      </g>
      <g id="Tool6">
        <path class="cls-3" d="m152.64,319.92l-36.83,41.71c-1.52,1.72-3.67,2.76-5.97,2.89l-5.31.29c-2.21.12-4.3,1.09-5.81,2.72l-16.67,17.87c-1.81,1.94-3.17,4.26-3.97,6.79l-7.67,24.15c-1.36,4.29,2.67,8.33,6.96,6.99l24.95-7.8c2.87-.9,5.46-2.5,7.54-4.66l15.74-16.32c1.81-1.8,2.73-4.3,2.51-6.85l-.46-5.21c-.2-2.28.52-4.56,2.01-6.3l37.93-44.41c1.15-1.34,2.15-2.81,2.98-4.37l14.69-27.57c1.32-2.47-1.69-4.97-3.88-3.23l-25.64,20.36c-1.12.89-2.17,1.88-3.12,2.96Z"/>
        <polygon class="cls-2" points="160.35 327.95 131.62 360.28 127.58 357.13 156.99 325.26 160.35 327.95"/>
        <path class="cls-2" d="m125.33,359.38l3.82,2.69-12.12,14.37-5.14.13c-2.31.06-4.48,1.08-6.01,2.81l-13.36,15.17c-.57.64-1.03,1.37-1.37,2.16l-4.33,9.91c-.57,1.3.64,2.67,2,2.27l9.59-2.81,22-21.33,1.12,3.59-21.78,21.78-16.99,4.29c-1.77.45-3.29-1.33-2.57-3.01l6.66-16.02c.52-1.24,1.24-2.39,2.13-3.4l15.75-17.76c1.41-1.59,3.41-2.56,5.53-2.68l4.76-.26,10.33-11.9Z"/>
        <polygon class="cls-2" points="159.23 321.89 180.78 301.46 162.82 325.03 159.23 321.89"/>
      </g>
    </g>
  </g>
</svg>